<svg width="20" height="20" viewBox="0 0 20 20" fill="none" xmlns="http://www.w3.org/2000/svg">
<path d="M10.75 19.7497C10.6498 19.7498 10.5507 19.7297 10.4584 19.6908C10.3661 19.6519 10.2825 19.5949 10.2126 19.5231C10.1427 19.4514 10.0879 19.3664 10.0513 19.2731C10.0148 19.1798 9.99738 19.0802 10 18.98V10.3808C10 10.2814 9.9605 10.186 9.89017 10.1157C9.81985 10.0453 9.72447 10.0058 9.62501 10.0058H1.01923C0.861484 10.0077 0.707023 9.96072 0.577028 9.87134C0.447033 9.78196 0.347869 9.65456 0.293134 9.5066C0.230802 9.33016 0.236684 9.13678 0.309623 8.96445C0.382563 8.79212 0.517291 8.65328 0.687353 8.5752L18.6874 0.318165C18.8264 0.254446 18.9816 0.234774 19.1322 0.261787C19.2828 0.288801 19.4215 0.361207 19.5297 0.469296C19.638 0.577384 19.7106 0.715986 19.7378 0.866512C19.765 1.01704 19.7456 1.17229 19.682 1.31145L11.432 19.3114C11.3723 19.4422 11.2763 19.553 11.1553 19.6307C11.0344 19.7084 10.8937 19.7497 10.75 19.7497Z" fill="#444444"/>
</svg>
