<svg width="815" height="471" viewBox="0 0 815 471" fill="none" xmlns="http://www.w3.org/2000/svg">
<path d="M251.621 265.312L329.104 310.047L311.283 320.336L248.411 284.037L213.432 304.232L276.305 340.531L258.483 350.82L181 306.085L251.621 265.312Z" fill="#212121" fill-opacity="0.1"/>
<path d="M332.704 218.499L410.188 263.234L392.477 273.459L371.889 261.572L355.506 271.03L362.369 290.842L343.441 301.77L336.246 278.955C328.867 280.744 321.635 281.213 314.551 280.361C307.393 279.466 300.788 277.272 294.737 273.778C288.76 270.327 284.996 266.578 283.447 262.531C281.823 258.441 282.377 254.287 285.107 250.069C287.764 245.808 292.487 241.718 299.276 237.799L332.704 218.499ZM314.329 245.979C309.238 248.918 306.507 251.858 306.138 254.798C305.843 257.695 308.02 260.486 312.669 263.17C317.171 265.769 321.93 267.025 326.948 266.94C331.966 266.855 336.984 265.364 342.002 262.467L357.72 253.392L329.605 237.159L314.329 245.979Z" fill="#212121" fill-opacity="0.1"/>
<path d="M425.947 181.536L401.152 195.851L464.025 232.151L446.314 242.376L383.442 206.077L358.758 220.328L344.147 211.892L411.336 173.1L425.947 181.536Z" fill="#212121" fill-opacity="0.1"/>
<path d="M485.578 159.634C495.024 154.181 504.359 151.22 513.583 150.751C522.881 150.24 531.662 152.37 539.927 157.142C548.709 162.212 552.62 167.708 551.661 173.63C550.701 179.467 545.167 185.303 535.057 191.14L500.079 211.335L422.595 166.6L440.416 156.311L465.875 171.009L485.578 159.634ZM520.778 184.047C525.427 181.362 527.899 178.614 528.194 175.803C528.563 172.948 526.571 170.264 522.217 167.75C514.173 163.106 505.207 163.639 495.319 169.348L479.158 178.678L504.617 193.377L520.778 184.047Z" fill="#212121" fill-opacity="0.1"/>
<path d="M330.046 322.874L407.529 367.609L389.819 377.834L326.947 341.535L300.381 356.873L315.988 366.523C326.614 373.084 334.658 378.75 340.119 383.522C345.506 388.251 348.384 392.64 348.753 396.687C349.122 400.649 346.354 404.335 340.451 407.743C338.016 409.149 334.658 410.619 330.378 412.153L316.32 402.758C317.575 402.375 318.792 401.842 319.973 401.161C324.253 398.689 324.733 395.515 321.412 391.638C318.018 387.719 311.155 382.521 300.824 376.045L270.494 357.256L330.046 322.874Z" fill="#212121" fill-opacity="0.1"/>
<path d="M472.486 313.491L486.875 321.799L426.881 356.436L349.398 311.701L407.953 277.894L422.343 286.202L381.609 309.72L398.434 319.434L434.408 298.664L448.355 306.717L412.381 327.486L430.313 337.839L472.486 313.491Z" fill="#212121" fill-opacity="0.1"/>
<path d="M497.707 242.947L472.912 257.262L535.784 293.561L518.074 303.786L455.202 267.487L430.518 281.738L415.906 273.303L483.096 234.511L497.707 242.947Z" fill="#212121" fill-opacity="0.1"/>
<path d="M251.621 211.312L329.104 256.047L311.283 266.336L248.411 230.037L213.432 250.232L276.305 286.531L258.483 296.82L181 252.085L251.621 211.312Z" fill="#2A2A2A"/>
<path d="M332.704 164.499L410.188 209.234L392.477 219.459L371.889 207.572L355.506 217.03L362.369 236.842L343.441 247.77L336.246 224.955C328.867 226.744 321.635 227.213 314.551 226.361C307.393 225.466 300.788 223.272 294.737 219.778C288.76 216.327 284.996 212.578 283.447 208.531C281.823 204.441 282.377 200.287 285.107 196.069C287.764 191.808 292.487 187.718 299.276 183.799L332.704 164.499ZM314.329 191.979C309.238 194.918 306.507 197.858 306.138 200.798C305.843 203.695 308.02 206.486 312.669 209.17C317.171 211.769 321.93 213.025 326.948 212.94C331.966 212.855 336.984 211.364 342.002 208.467L357.72 199.392L329.605 183.159L314.329 191.979Z" fill="#2A2A2A"/>
<path d="M425.947 127.536L401.152 141.851L464.025 178.151L446.314 188.376L383.442 152.077L358.758 166.328L344.147 157.892L411.336 119.1L425.947 127.536Z" fill="#2A2A2A"/>
<path d="M485.578 105.634C495.024 100.181 504.359 97.2195 513.583 96.7509C522.881 96.2396 531.662 98.3699 539.927 103.142C548.709 108.212 552.62 113.708 551.661 119.63C550.701 125.467 545.167 131.303 535.057 137.14L500.079 157.335L422.595 112.6L440.416 102.311L465.875 117.009L485.578 105.634ZM520.778 130.047C525.427 127.362 527.899 124.614 528.194 121.803C528.563 118.948 526.571 116.264 522.217 113.75C514.173 109.106 505.207 109.639 495.319 115.348L479.158 124.678L504.617 139.377L520.778 130.047Z" fill="#2A2A2A"/>
<path d="M330.046 268.874L407.529 313.609L389.819 323.834L326.947 287.535L300.381 302.873L315.988 312.523C326.614 319.084 334.658 324.75 340.119 329.522C345.506 334.251 348.384 338.64 348.753 342.687C349.122 346.649 346.354 350.335 340.451 353.743C338.016 355.149 334.658 356.619 330.378 358.153L316.32 348.758C317.575 348.375 318.792 347.842 319.973 347.161C324.253 344.689 324.733 341.515 321.412 337.638C318.018 333.719 311.155 328.521 300.824 322.045L270.494 303.256L330.046 268.874Z" fill="#2A2A2A"/>
<path d="M472.486 259.491L486.875 267.799L426.881 302.436L349.398 257.701L407.953 223.894L422.343 232.202L381.609 255.72L398.434 265.434L434.408 244.664L448.355 252.717L412.381 273.486L430.313 283.839L472.486 259.491Z" fill="#2A2A2A"/>
<path d="M497.707 188.947L472.912 203.262L535.784 239.561L518.074 249.786L455.202 213.487L430.518 227.738L415.906 219.303L483.096 180.511L497.707 188.947Z" fill="#2A2A2A"/>
<circle cx="235.217" cy="235.217" r="234.717" transform="matrix(0.866025 -0.5 0.866025 0.5 0 235.217)" stroke="#2A2A2A" stroke-dasharray="5 5"/>
<circle cx="11" cy="11" r="11" transform="matrix(0.866025 -0.5 0.866025 0.5 101 229)" fill="#2A2A2A"/>
<circle cx="11" cy="11" r="11" transform="matrix(0.866025 -0.5 0.866025 0.5 557 370)" fill="#2A2A2A"/>
<circle cx="11" cy="11" r="11" transform="matrix(0.866025 -0.5 0.866025 0.5 304 74)" fill="#2A2A2A"/>
</svg>
