<svg width="76" height="76" viewBox="0 0 76 76" xmlns="http://www.w3.org/2000/svg">
    <path
        d="M21.3333 0.5C9.82917 0.5 0.5 9.82917 0.5 21.3333V54.6667C0.5 66.1708 9.82917 75.5 21.3333 75.5H54.6667C66.1708 75.5 75.5 66.1708 75.5 54.6667V21.3333C75.5 9.82917 66.1708 0.5 54.6667 0.5H21.3333ZM63 8.83333C65.3 8.83333 67.1667 10.7 67.1667 13C67.1667 15.3 65.3 17.1667 63 17.1667C60.7 17.1667 58.8333 15.3 58.8333 13C58.8333 10.7 60.7 8.83333 63 8.83333ZM38 17.1667C49.5042 17.1667 58.8333 26.4958 58.8333 38C58.8333 49.5042 49.5042 58.8333 38 58.8333C26.4958 58.8333 17.1667 49.5042 17.1667 38C17.1667 26.4958 26.4958 17.1667 38 17.1667ZM38 25.5C34.6848 25.5 31.5054 26.817 29.1612 29.1612C26.817 31.5054 25.5 34.6848 25.5 38C25.5 41.3152 26.817 44.4946 29.1612 46.8388C31.5054 49.183 34.6848 50.5 38 50.5C41.3152 50.5 44.4946 49.183 46.8388 46.8388C49.183 44.4946 50.5 41.3152 50.5 38C50.5 34.6848 49.183 31.5054 46.8388 29.1612C44.4946 26.817 41.3152 25.5 38 25.5Z"
        fill="black" />
</svg>