<svg width="92" height="92" viewBox="0 0 92 92" xmlns="http://www.w3.org/2000/svg">
    <path
        d="M46 0C71.406 0 92 20.594 92 46C92 71.406 71.406 92 46 92C20.594 92 0 71.406 0 46C0 20.594 20.594 0 46 0ZM61.868 64.75C62.714 62.154 66.678 36.282 67.168 31.184C67.316 29.64 66.828 28.614 65.872 28.156C64.716 27.6 63.004 27.878 61.018 28.594C58.294 29.576 23.47 44.362 21.458 45.218C19.55 46.028 17.746 46.912 17.746 48.192C17.746 49.092 18.28 49.598 19.752 50.124C21.284 50.67 25.142 51.84 27.42 52.468C29.614 53.074 32.112 52.548 33.512 51.678C34.996 50.756 52.122 39.296 53.352 38.292C54.58 37.288 55.56 38.574 54.556 39.58C53.552 40.584 41.796 51.994 40.246 53.574C38.364 55.492 39.7 57.48 40.962 58.276C42.404 59.184 52.774 66.14 54.336 67.256C55.898 68.372 57.482 68.878 58.932 68.878C60.382 68.878 61.146 66.968 61.868 64.75Z"
        fill="black" />
</svg>